<mxfile host="app.diagrams.net" modified="2024-05-07T01:17:12.293Z" agent="Mozilla/5.0 (Windows NT 10.0; Win64; x64) AppleWebKit/537.36 (KHTML, like Gecko) Chrome/124.0.0.0 Safari/537.36 Edg/124.0.0.0" version="24.3.1" etag="SZ1Y-wL4hi-AmZVoVXcN" type="github">
  <diagram name="第 1 页" id="83G9UUIw1hBXWzXS-K6z">
    <mxGraphModel>
      <root>
        <mxCell id="0" />
        <mxCell id="1" parent="0" />
      </root>
    </mxGraphModel>
  </diagram>
</mxfile>
